<?xml version="1.0" encoding="UTF-8"?>
<svg xmlns="http://www.w3.org/2000/svg" width="792" height="792" viewBox="0 0 792 792">
  <defs>
    <style>
      path {
        fill: #333;
      }

      @media (prefers-color-scheme: dark) {
        path {
          fill: #fff;
        }
      }
    </style>
  </defs>
  <path d="m112.33,154.76c-18.79,0-35.86,20.49-49.52,35.86h-7.69c44.4-55.5,103.32-128.08,165.65-128.08,47.82,0,81.12,42.69,47.82,159.67l-48.67,169.06h7.69l17.93-46.11C321.52,150.49,394.95,62.54,466.68,62.54c53.79,0,85.39,50.38,52.94,155.4l-54.65,175.04,2.56-1.71h7.69l17.93-46.11c76-194.68,149.43-282.63,221.15-282.63,55.5,0,87.09,51.23,54.65,155.4l-40.99,129.79c-17.08,55.5-3.42,72.58,12.81,72.58s29.89-16.22,43.55-31.59h7.68c-44.4,53.79-99.9,128.08-161.38,128.08-47.82,0-90.51-46.96-52.94-163.09l46.96-143.45c9.39-29.03,0-38.42-11.1-38.42-29.88,0-61.48,51.23-112.71,182.73l-58.92,151.99h-160.52l96.49-296.29c9.39-29.03-.86-38.42-11.96-38.42-29.88,0-61.48,51.23-112.71,182.73l-58.92,151.99H39.75L123.42,214.53c13.66-47.82,4.27-59.77-11.1-59.77Z"/>
  <path d="m783,740.77l-14.52,51.23H0l14.52-51.23h768.48Z"/>
</svg>
