<?xml version="1.0" encoding="UTF-8"?>
<svg xmlns="http://www.w3.org/2000/svg" width="792" height="792" viewBox="0 0 792 792">
  <defs>
    <style>
      path, rect {
        fill: #333;
      }

      @media (prefers-color-scheme: dark) {
        path, rect {
          fill: #fff;
        }
      }
    </style>
  </defs>
    <path d="m157.35,241.65c-15.98,0-30.5,17.43-42.12,30.51h-6.54c37.77-47.22,87.88-108.95,140.91-108.95,40.67,0,69,36.31,40.67,135.82l-41.4,143.81h6.54l15.25-39.22c64.64-165.6,127.11-240.4,188.11-240.4,45.76,0,72.63,42.85,45.03,132.19l-46.02,147.43h8.26s15.25-39.21,15.25-39.21c64.64-165.6,127.11-240.4,188.11-240.4,47.21,0,74.08,43.58,46.48,132.19l-34.86,110.4c-14.53,47.21-2.91,61.74,10.89,61.74s25.42-13.8,37.04-26.88h6.54c-37.77,45.76-84.98,108.95-137.27,108.95-40.67,0-76.99-39.94-45.03-138.73l39.95-122.02c7.99-24.69,0-32.68-9.44-32.68-25.42,0-52.29,43.58-95.87,155.43l-50.12,129.29h-136.54l82.07-252.03c7.99-24.69-.73-32.68-10.17-32.68-25.42,0-52.29,43.58-95.87,155.43l-50.12,129.29H95.61l71.18-248.4c11.62-40.67,3.63-50.84-9.44-50.84Z"/>
    <rect y="700.93" width="792" height="91.07"/>
</svg>
