<?xml version="1.0" encoding="UTF-8"?>
<svg xmlns="http://www.w3.org/2000/svg" width="248.4" height="197.21" viewBox="0 0 248.4 197.21">
  <defs>
    <style>
      path, rect {
        fill: #333;
      }
    </style>
  </defs>
    <path d="m49.35,24.6c-5.01,0-9.57,5.47-13.21,9.57h-2.05C45.93,19.36,61.65,0,78.28,0c12.76,0,21.64,11.39,12.76,42.6l-12.99,45.1h2.05l4.78-12.3C105.16,23.46,124.75,0,143.89,0c14.35,0,22.78,13.44,14.12,41.46l-14.44,46.24h2.59s4.78-12.3,4.78-12.3C171.22,23.46,190.81,0,209.95,0c14.81,0,23.24,13.67,14.58,41.46l-10.93,34.62c-4.56,14.81-.91,19.36,3.42,19.36s7.97-4.33,11.62-8.43h2.05c-11.84,14.35-26.65,34.17-43.05,34.17-12.76,0-24.15-12.53-14.12-43.51l12.53-38.27c2.51-7.74,0-10.25-2.96-10.25-7.97,0-16.4,13.67-30.07,48.75l-15.72,40.55h-42.83l25.74-79.05c2.5-7.74-.23-10.25-3.19-10.25-7.97,0-16.4,13.67-30.07,48.75l-15.72,40.55H29.99l22.32-77.91c3.65-12.76,1.14-15.95-2.96-15.95Z"/>
    <rect y="168.65" width="248.4" height="28.56"/>
</svg>
