<?xml version="1.0" encoding="UTF-8"?>
<svg xmlns="http://www.w3.org/2000/svg" width="211.29" height="194.61" viewBox="0 0 211.29 194.61">
  <defs>
    <style>
      path {
        fill: #333;
      }
    </style>
  </defs>
    <path d="m29.97,24.6c-5.01,0-9.57,5.47-13.21,9.57h-2.05C26.55,19.36,42.27,0,58.9,0c12.76,0,21.64,11.39,12.76,42.6l-12.99,45.1h2.05l4.78-12.3C85.78,23.46,105.37,0,124.5,0c14.35,0,22.78,13.44,14.12,41.46l-14.58,46.7.68-.46h2.05l4.78-12.3C151.84,23.46,171.43,0,190.56,0c14.81,0,23.24,13.67,14.58,41.46l-10.93,34.63c-4.56,14.81-.91,19.36,3.42,19.36s7.97-4.33,11.62-8.43h2.05c-11.84,14.35-26.65,34.17-43.05,34.17-12.76,0-24.15-12.53-14.12-43.51l12.53-38.27c2.51-7.75,0-10.25-2.96-10.25-7.97,0-16.4,13.67-30.07,48.75l-15.72,40.55h-42.83l25.74-79.05c2.5-7.75-.23-10.25-3.19-10.25-7.97,0-16.4,13.67-30.07,48.75l-15.72,40.55H10.6l22.32-77.91c3.65-12.76,1.14-15.95-2.96-15.95Z"/>
    <path d="m208.89,180.94l-3.87,13.67H0l3.87-13.67h205.02Z"/>
</svg>
