<?xml version="1.0" encoding="UTF-8"?>
<svg xmlns="http://www.w3.org/2000/svg" width="11" height="11" viewBox="0 0 11 11">
  <defs>
    <style>
      path {
        fill: #333;
      }
    </style>
  </defs>
  <g>
    <path d="m5.34,7.87s-.05-.01-.08-.04-.04-.07-.04-.11v-1.82c0-.08-.04-.12-.12-.12h-1.91s-.08-.01-.11-.04-.05-.05-.05-.08c0-.05,0-.11.03-.18s.05-.13.09-.19c.04-.06.09-.09.15-.09h1.79c.06,0,.1,0,.11-.03.01-.02.02-.05.02-.09v-1.65c0-.06.02-.11.07-.16.05-.04.11-.08.18-.11s.13-.04.18-.04.08.02.11.06.04.09.04.14v1.75c0,.08.04.13.12.13h1.84c.05,0,.1.01.14.04.04.02.06.06.06.11,0,.08-.03.17-.09.27s-.13.15-.22.15h-1.75c-.08,0-.12.04-.12.12v1.71c0,.06-.03.11-.09.15s-.12.07-.19.09c-.07.02-.13.03-.18.03Z"/>
  </g>
</svg>
