<?xml version="1.0" encoding="UTF-8"?>
<svg xmlns="http://www.w3.org/2000/svg" width="11" height="11" viewBox="0 0 11 11">
  <defs>
    <style>
      path {
        fill: #333;
      }
    </style>
  </defs>
  <g>
    <g>
      <path class="cls-2" d="m5.5,7.81c-.31-.33-.66-.61-1-.89-.84-.69-1.63-1.33-1.75-2.48-.03-.32.08-.63.3-.89.27-.3.68-.48,1.09-.48.44,0,.87.24,1.15.65l.21.3.21-.3c.28-.41.71-.65,1.15-.65.38,0,.74.15,1,.42.26.26.4.61.39.97-.01.77-.83,1.53-1.71,2.33-.36.33-.72.67-1.04,1.02Z"/>
      <path d="m6.86,3.32c.31,0,.61.12.82.35.21.21.32.5.32.79-.01.66-.83,1.42-1.62,2.15-.3.27-.6.55-.88.84-.27-.26-.55-.5-.84-.73-.83-.68-1.55-1.27-1.66-2.31-.03-.32.11-.55.24-.69.23-.25.56-.4.9-.4.42,0,.76.28.94.54l.41.59.41-.59c.18-.26.52-.54.94-.54m0-.5c-.56,0-1.05.33-1.35.75-.3-.43-.79-.75-1.35-.75h0c-.91,0-1.74.74-1.64,1.65.19,1.85,1.99,2.5,3,3.72,1.07-1.28,2.97-2.43,3-3.72.02-.91-.74-1.65-1.64-1.65h0Z"/>
    </g>
  </g>
</svg>
