<?xml version="1.0" encoding="UTF-8"?>
<svg xmlns="http://www.w3.org/2000/svg" width="11" height="11" viewBox="0 0 11 11">
  <defs>
    <style>
      path {
        fill: #333;
      }
    </style>
  </defs>
  <g>
    <path d="m5.29,1.78s.09,0,.16.03.13.05.19.08c.06.04.08.09.08.16v4.22c.1-.11.21-.21.32-.29.11-.09.24-.18.41-.29.17-.11.39-.24.66-.39.07-.04.13-.05.18-.05s.07.02.07.06c0,.07-.03.13-.08.19-.05.06-.09.11-.11.14-.17.19-.32.35-.43.49-.12.14-.23.28-.33.42s-.21.3-.32.48c-.12.19-.26.42-.43.7-.06.14-.13.21-.21.21-.05,0-.09-.01-.11-.04-.03-.03-.06-.07-.1-.13-.13-.26-.24-.49-.34-.67-.1-.19-.2-.35-.3-.5-.1-.15-.21-.3-.33-.45-.12-.15-.27-.32-.44-.51-.02-.03-.06-.08-.11-.14-.05-.06-.08-.12-.08-.19,0-.04.04-.06.11-.06.02,0,.05,0,.07.02.02.01.05.02.07.04.25.16.45.29.6.4.15.11.28.2.38.27.1.08.2.15.29.23V1.93s.01-.08.05-.11.06-.05.08-.05Z"/>
    <path d="m3.19,9.22s-.08-.01-.11-.04-.05-.05-.05-.08c0-.05,0-.11.03-.18s.05-.13.09-.19c.04-.06.09-.09.15-.09h4.45c.05,0,.1.01.14.04.04.02.06.06.06.11,0,.08-.03.17-.09.27s-.13.15-.22.15H3.19Z"/>
  </g>
</svg>
