<?xml version="1.0" encoding="UTF-8"?>
<svg xmlns="http://www.w3.org/2000/svg" width="11" height="11" viewBox="0 0 11 11">
  <defs>
    <style>
      path {
        fill: #333;
      }
    </style>
  </defs>
  <path d="m7.38,5.12c-.38,0-.73-.07-1.06-.22-.33-.14-.66-.3-.97-.45-.29-.16-.58-.3-.88-.43-.3-.13-.6-.2-.92-.2-.36,0-.68.1-.96.29-.28.19-.51.39-.68.6-.17.2-.28.3-.32.3-.09,0-.18-.03-.27-.1-.09-.07-.14-.13-.14-.21,0-.14.07-.34.19-.59.13-.25.31-.49.55-.74.24-.25.52-.45.83-.63.32-.17.66-.26,1.04-.26s.72.07,1.03.22c.31.14.6.3.88.45.29.17.57.33.85.47.27.14.56.21.84.21.25,0,.48-.07.71-.21.23-.14.44-.3.62-.48s.33-.34.45-.48c.12-.14.2-.21.23-.21.06,0,.14.04.26.11.12.07.18.18.18.32,0,.22-.08.45-.23.71s-.35.5-.6.73c-.25.22-.51.41-.8.55-.29.14-.56.22-.82.22Zm0,3.4c-.38,0-.73-.07-1.06-.22s-.66-.3-.97-.45c-.29-.16-.58-.3-.88-.43-.3-.13-.6-.19-.92-.19-.36,0-.68.1-.96.29-.28.19-.51.39-.68.59-.17.2-.28.3-.32.3-.09,0-.18-.03-.27-.1-.09-.07-.14-.13-.14-.21,0-.14.07-.34.19-.58.13-.25.31-.49.55-.74.24-.25.52-.45.83-.63.32-.17.66-.26,1.04-.26s.72.07,1.03.22c.31.14.6.3.88.46.29.17.57.33.85.47.27.14.56.21.84.21.25,0,.48-.07.71-.21s.44-.3.62-.48c.18-.18.33-.34.45-.48s.2-.21.23-.21c.06,0,.14.04.26.11.12.07.18.18.18.33,0,.22-.08.45-.23.71s-.35.5-.6.73c-.25.22-.51.41-.8.55s-.56.22-.82.22Z"/>
</svg>
