<?xml version="1.0" encoding="UTF-8"?>
<svg xmlns="http://www.w3.org/2000/svg" width="11" height="11" viewBox="0 0 11 11">
  <defs>
    <style>
      path, circle {
        fill: #333;
      }
    </style>
  </defs>

  <g>
    <circle cx="5.5" cy="5.5" r=".4"/>
    <circle cx="4.42" cy="6.58" r=".4"/>
    <circle cx="6.58" cy="4.42" r=".4"/>
    <circle cx="6.58" cy="6.58" r=".4"/>
    <circle cx="4.42" cy="4.42" r=".4"/>
    <path d="m8.17,2.71s-.09-.04-.14-.04H3.03c-.06,0-.11.03-.15.09-.04.05-.06.11-.08.17,0,0,0,0,0,0,0,0,0,0,0,0,0,0,0,.01,0,.02,0,.02-.03.09-.03.12v5.14s.02.05.05.08.07.04.11.04h5c.08,0,.16-.05.22-.15.02-.03.05-.09.05-.1.02-.04.04-.09.04-.14V2.82s-.02-.08-.06-.11Zm-.51,5.05H3.34V3.24h4.32v4.52Z"/>
  </g>
</svg>
