<?xml version="1.0" encoding="UTF-8"?>
<svg xmlns="http://www.w3.org/2000/svg" width="11" height="11" viewBox="0 0 11 11">
  <defs>
    <style>
      path {
        fill: #333;
      }
    </style>
  </defs>
  <g id="Layer_6" data-name="Layer 6">
    <path d="m5.29,9.58s-.05-.02-.08-.05-.05-.07-.05-.11v-4.13c-.09.07-.19.15-.3.23-.11.08-.23.17-.38.28-.15.1-.35.24-.61.41-.02.01-.05.02-.07.04-.02.01-.05.02-.07.02-.07,0-.11-.02-.11-.06,0-.07.03-.13.08-.2.05-.06.09-.11.12-.13.17-.18.31-.35.43-.49s.23-.28.32-.43.19-.3.28-.47c.09-.17.2-.37.31-.61v-.68c-.09.07-.19.15-.3.23-.11.08-.23.17-.38.28-.15.1-.35.24-.61.41-.02.01-.05.02-.07.04-.02.01-.05.02-.07.02-.07,0-.11-.02-.11-.06,0-.07.03-.13.08-.2.05-.06.09-.11.12-.13.18-.19.33-.36.45-.51.12-.15.23-.3.33-.45.1-.15.2-.32.3-.51.1-.19.21-.41.34-.68.04-.06.07-.11.1-.13.03-.03.07-.04.12-.04.08,0,.15.07.21.21.17.28.32.52.43.71.12.19.23.35.33.49s.21.28.33.42c.12.14.27.31.44.5.02.02.06.07.12.13.05.06.08.13.08.2,0,.04-.02.06-.07.06s-.11-.02-.18-.06c-.28-.16-.5-.29-.67-.4-.17-.1-.31-.2-.42-.29-.11-.09-.21-.19-.32-.29v.75c.16.26.29.48.4.65s.21.33.31.47c.1.14.21.27.32.41.12.14.26.3.43.48.02.02.06.07.12.13.05.06.08.13.08.2,0,.04-.02.06-.07.06s-.11-.02-.18-.06c-.28-.16-.5-.29-.67-.4-.17-.1-.31-.2-.42-.29-.11-.09-.21-.18-.32-.3v4.08c0,.06-.03.11-.08.15-.06.04-.12.07-.19.09-.07.02-.12.03-.16.03Z"/>
  </g>
</svg>
