<?xml version="1.0" encoding="UTF-8"?>
<svg xmlns="http://www.w3.org/2000/svg" width="11" height="11" viewBox="0 0 11 11">
  <defs>
    <style>
      path {
        fill-rule: evenodd;
        fill: #333;
      }
    </style>
  </defs>
  <g id="settings">
    <path class="cls-1" d="m3.22,6.9v.19s0,.06,0,.06v.06s.01.06.01.06v.04s0,.03,0,.03v.07s0,.02,0,.02v.02s-.01.02-.01.02v.02s-.02.02-.02.02v.02s-.02.02-.02.02l-.02.02-.02.02-.02.02-.02.02-.02.02-.02.02-.02.02-.02.02-.02.02-.03.02h-.03s-.03.03-.03.03h-.03s-.03.02-.03.02h-.03s-.03.02-.03.02h-.03s-.03.01-.03.01h-.03s-.03,0-.03,0h-.03s-.03,0-.03,0h-.14s-.05,0-.05,0h-.05s-.05-.01-.05-.01h-.04s-.04-.02-.04-.02h-.04s-.04-.03-.04-.03l-.04-.02-.04-.02-.04-.02-.04-.02-.03-.03-.03-.03-.03-.03-.03-.03-.03-.03-.03-.04-.03-.04-.03-.04-.02-.04-.02-.04-.02-.04-.02-.04-.02-.05-.02-.05-.02-.05v-.05s-.02-.05-.02-.05v-.06s-.02-.06-.02-.06l-.2-.07.02-.06.02-.06.02-.06.03-.06.03-.06.03-.05.02-.03.02-.03.02-.03.02-.02v-.09s.02-.08.02-.08v-.04s.02-.04.02-.04v-.04s.02-.04.02-.04v-.04s.02-.04.02-.04v-.04s.02-.04.02-.04v-.04s.03-.04.03-.04v-.04s.03-.03.03-.03l.02-.04.02-.03.02-.03.02-.03.02-.03.02-.03.02-.03.02-.03.02-.03.02-.03.02-.03.02-.03.02-.03.03-.03.03-.03.03-.03.03-.03.03-.03.03-.02.03-.02.03-.02.03-.02.03-.02.03-.02.03-.02.03-.02.03-.02.03-.02.07-.04.08-.04.08-.03.08-.03.08-.03.09-.03.09-.02.09-.02.09-.02.1-.02-.02-.03-.02-.03-.02-.03-.02-.03-.03-.02-.03-.02-.03-.02-.04-.02-.04-.02-.04-.02-.05-.02h-.05s-.05-.03-.05-.03h-.05s-.06-.02-.06-.02h-.06s-.03-.01-.03-.01h-.03s-.03,0-.03,0h-.02s-.05-.01-.05-.01h-.05s-.05-.02-.05-.02h-.05s-.05-.02-.05-.02h-.04s-.04-.02-.04-.02h-.04s-.04-.03-.04-.03l-.04-.02h-.03s-.03-.03-.03-.03l-.03-.02-.03-.02-.03-.02-.03-.02-.02-.02-.02-.02-.02-.02-.02-.02-.02-.02v-.03s-.03-.03-.03-.03v-.03s-.02-.03-.02-.03v-.03s-.02-.03-.02-.03v-.03s-.01-.03-.01-.03v-.03s0-.04,0-.04v-.03s0-.03,0-.03v-.03s0-.03,0-.03v-.03s0-.03,0-.03v-.02s.01-.03.01-.03v-.02s.02-.02.02-.02v-.02s.02-.02.02-.02v-.02s.02-.02.02-.02v-.02s.03-.02.03-.02v-.02s.03-.02.03-.02l.02-.02.02-.02.02-.02.02-.02.02-.02.02-.02.02-.02.02-.02h.02s.03-.03.03-.03h.03s.03-.03.03-.03h.03s.03-.02.03-.02h.03s.37-.03.37-.03l-.02.02-.02.02-.02.02-.02.02v.02s-.03.02-.03.02v.02s-.02.02-.02.02v.02s-.02.02-.02.02v.02s-.01.02-.01.02v.02s0,.02,0,.02v.02s0,.02,0,.02v.02s0,.02,0,.02v.02s0,.02,0,.02v.02s0,.02,0,.02v.02s.01.02.01.02v.02s.02.02.02.02v.02s.02.02.02.02l.03.04.03.04.03.04.04.04.04.04.05.04.05.04.05.04.06.04.06.04.02.02h.02s.02.02.02.02h.02s.05.04.05.04l.05.04.05.04.05.04.04.04.04.04.04.04.03.04.03.04.03.04.03.04.03.04.02.05.02.05.02.05.02.05h.11s.11.03.11.03h.05s.05.02.05.02h.05s.05.02.05.02h.05s.05.02.05.02h.04s.04.03.04.03h.04s.04.03.04.03l.04.02h.04s.04.03.04.03l.04.02.04.02.04.02.04.02.03.02.03.02.03.02.03.02.03.02.03.03.03.03.03.03.03.03.03.03.03.03.03-.02-.03-.05-.03-.05-.02-.05-.02-.05-.02-.05-.02-.05-.02-.05v-.04s-.03-.04-.03-.04v-.04s-.02-.04-.02-.04v-.04s-.01-.04-.01-.04v-.04s0-.04,0-.04v-.14s.01-.05.01-.05v-.05s.02-.05.02-.05v-.05s.03-.05.03-.05l.02-.05.02-.04.02-.04.03-.04.03-.04.03-.04.03-.04.04-.04.04-.04.04-.03.04-.03.04-.03.04-.03.05-.02.05-.02.05-.02.05-.02.05-.02h.05s.05-.03.05-.03h.06s.06-.02.06-.02h.06s.06,0,.06,0h.06s.04,0,.04,0h.04s.04,0,.04,0h.04s.04,0,.04,0h.04s.04.01.04.01h.04s.04.01.04.01h.04s.04.02.04.02h.04s.04.02.04.02h.03s.04.02.04.02h.03s.03.03.03.03h.03s.03.03.03.03l.03.02.03.02.03.02.03.02.03.02.03.02.03.02.03.02.03.02.03.02.03.03.03.03.03.03.06.06.06.06.03.03.02.03.03.03.02.03.02.03.02.03.02.03.02.03.02.03.02.03.02.03.02.03.02.03.02.03v.03s.03.03.03.03v.04s.03.04.03.04v.04s.02.04.02.04v.04s.02.04.02.04v.04s.02.04.02.04v.04s.01.04.01.04v.04s0,.04,0,.04v.03s0,.04,0,.04v.04s0,.04,0,.04v.05s0,.05,0,.05v.05s0,.06,0,.06l.02.19.02.17v.08s.02.07.02.07v.07s.02.07.02.07v.06s.02.05.02.05v.05s.02.04.02.04v.04s.02.03.02.03v.03s.03.02.03.02l.02.04.03.04.03.03.03.03.03.03.03.03.04.03.04.03.04.02.04.02.04.02h.04s.04.02.04.02h.04s.05.01.05.01h.05s.03,0,.03,0h.03s.03,0,.03,0h.03s.03,0,.03,0h.03s.03-.02.03-.02h.03s.03-.02.03-.02h.03s.02-.03.02-.03l.03-.02.02-.02.02-.02.02-.02.02-.02.02-.02.02-.02.02-.02.02-.02.02-.02v-.03s.03-.03.03-.03v-.03s.02-.03.02-.03v-.03s.02-.03.02-.03v-.03s.01-.03.01-.03v-.03s0-.03,0-.03v-.1s0-.04,0-.04v-.04s-.02-.04-.02-.04v-.05s-.03-.06-.03-.06l-.02-.06.02-.03.02-.02.02-.02.02-.02.02-.02.02-.02.02-.02h.02s.02-.03.02-.03h.02s.03-.02.03-.02h.03s.03-.01.03-.01h.03s.03,0,.03,0h.03s.04,0,.04,0h.03s.02,0,.02,0h.02s.02,0,.02,0h.02s.01.01.01.01h.01s.01.01.01.01h.01s.01.02.01.02h.01s.01.02.01.02h.01s.02.04.02.04l.02.03h0s0,.03,0,.03h0s0,.03,0,.03h0s0,.03,0,.03h0s0,.03,0,.03v.03s0,.03,0,.03v.04s0,.02,0,.02v.02s0,.02,0,.02v.02s-.01.02-.01.02v.02s-.02.02-.02.02v.02s-.02.02-.02.02v.02s-.03.02-.03.02l-.02.02-.02.02-.02.02-.04.05-.04.05-.05.05-.05.05-.06.05-.06.06-.07.06-.07.06-.1.08-.1.07-.1.07-.1.07-.1.07-.1.06-.1.06-.1.06-.1.06-.1.05-.1.05-.1.05-.1.05-.1.04-.1.04-.09.04-.09.04-.09.03-.09.03-.09.03-.09.03-.09.02-.09.02-.09.02-.09.02-.09.02h-.09s-.09.02-.09.02h-.09s-.09.01-.09.01h-.09s-.09,0-.09,0h-.11s-.05,0-.05,0h-.05s-.05,0-.05,0h-.05s-.05,0-.05,0h-.05s-.05-.01-.05-.01h-.05s-.05-.02-.05-.02h-.05s-.05-.02-.05-.02h-.05s-.05-.02-.05-.02h-.05s-.04-.03-.04-.03h-.04s-.04-.03-.04-.03l-.04-.02-.04-.02-.04-.02-.04-.02-.04-.02-.04-.02-.04-.02-.04-.02-.04-.02-.04-.02-.04-.02-.04-.03-.04-.03-.04-.03-.03-.03-.03-.03-.03-.03-.03-.03-.03-.03-.03-.03-.03-.03-.03-.03-.03-.03-.02-.03-.02-.03-.02-.03-.02-.03-.02-.03-.02-.03-.02-.03-.02-.03v-.03s-.03-.03-.03-.03v-.03s-.02-.04-.02-.04v-.03s-.02-.04-.02-.04v-.04s-.02-.04-.02-.04v-.04s-.01-.04-.01-.04v-.04s0-.04,0-.04v-.04s0-.09,0-.09v-.04s0-.04,0-.04v-.04s.01-.04.01-.04v-.04s.02-.04.02-.04v-.04s.02-.04.02-.04v-.03s.03-.03.03-.03l.02-.03.02-.03.02-.03.02-.03.02-.03.02-.03.03-.03.03-.02.03-.02.03-.02.03-.02.03-.02.03-.02.04-.02.04-.02h.04s.04-.03.04-.03h.04s.04-.02.04-.02h.04s.04-.02.04-.02v-.03s-.02-.03-.02-.03l-.03-.03-.03-.03-.03-.03-.03-.03-.03-.03-.03-.03-.03-.03-.03-.02-.03-.03-.03-.02-.03-.02-.03-.02-.03-.02-.03-.02-.03-.02-.04-.02-.04-.02h-.04s-.04-.03-.04-.03h-.04s-.04-.03-.04-.03h-.04s-.04-.02-.04-.02h-.04s-.04-.02-.04-.02h-.04s-.04-.01-.04-.01h-.04s-.04,0-.04,0h-.04s-.04,0-.04,0v.07s0,.07,0,.07v.07s-.02.06-.02.06v.06s-.03.06-.03.06l-.02.06-.02.06-.02.06-.02.06-.03.05-.03.05-.03.05-.03.05-.04.05-.04.05-.04.05-.04.04-.05.05-.05.05-.06.05-.06.05-.06.05-.07.05-.07.04-.07.05-.08.05-.08.05-.09.05-.09.05-.09.05-.1.05v.02s0,.02,0,.02v.02s.01.02.01.02v.02s.01.02.01.02v.02s.02.02.02.02v.02s.02.02.02.02v.02s.02.02.02.02v.02s.03.02.03.02v.02s.03.01.03.01l.02.02h.02s.02.03.02.03h.02s.02.02.02.02h.02s.02.02.02.02h.02s.02.02.02.02h.02s.02.01.02.01h.02s.02,0,.02,0h.02s.02,0,.02,0h.08s.03,0,.03,0h.03s.03-.01.03-.01h.03s.03-.02.03-.02h.03s.03-.02.03-.02h.03s.03-.03.03-.03l.03-.02.04-.02.04-.02.04-.02.04-.03h0Zm-1.06-.69l.08-.02.08-.03.08-.03.07-.03.07-.03.07-.03.06-.03.06-.03.06-.03.05-.03.05-.03.05-.03.05-.03.04-.03.04-.04.04-.03.03-.04.03-.04.03-.04.03-.04.03-.04.02-.04.02-.04.02-.05.02-.05v-.05s.03-.05.03-.05v-.05s.02-.05.02-.05v-.05s0-.05,0-.05v-.07h-.07s-.07.03-.07.03l-.07.02-.07.02-.06.02-.06.02-.06.02-.06.02-.05.03-.05.03-.05.03-.05.03-.05.03-.04.03-.04.04-.04.04-.04.04-.03.04-.03.04-.03.04-.03.05-.03.05-.02.05-.02.05-.02.05-.02.05-.02.06v.06s-.03.06-.03.06v.06s-.02.06-.02.06v.06s0,0,0,0Z"/>
  </g>
</svg>
