<?xml version="1.0" encoding="UTF-8"?>
<svg xmlns="http://www.w3.org/2000/svg" width="11" height="11" viewBox="0 0 11 11">
  <defs>
    <style>
      path {
        fill: #333;
      }
    </style>
  </defs>
  <g>
    <path d="m3.21,3.7s-.08-.01-.11-.04-.05-.05-.05-.08c0-.05,0-.11.03-.18s.05-.13.09-.19c.04-.06.09-.09.15-.09h4.45c.05,0,.1.01.14.04.04.02.06.06.06.11,0,.08-.03.17-.09.27s-.13.15-.22.15H3.21Z"/>
    <path d="m3.21,5.79s-.08-.01-.11-.04-.05-.05-.05-.08c0-.05,0-.11.03-.18s.05-.13.09-.19c.04-.06.09-.09.15-.09h4.45c.05,0,.1.01.14.04.04.02.06.06.06.11,0,.08-.03.17-.09.27s-.13.15-.22.15H3.21Z"/>
    <path d="m3.18,7.87s-.08-.01-.11-.04-.05-.05-.05-.08c0-.05,0-.11.03-.18s.05-.13.09-.19c.04-.06.09-.09.15-.09h4.45c.05,0,.1.01.14.04.04.02.06.06.06.11,0,.08-.03.17-.09.27s-.13.15-.22.15H3.18Z"/>
  </g>
</svg>
