<svg xmlns="http://www.w3.org/2000/svg" viewBox="0 0 266.16 512"><defs><style>.cls-1{fill:#010101}</style></defs><title>about</title><path class="cls-1" d="M224.39 197.29q-37.54-33.3-83.83-35.84 2.82 51.08 37.26 92.86a136.59 136.59 0 0 0-25.41 41.35q-9 23-11.85 54.61 41.2-2 83.83-35.84l41.77 43.18-41.77 42.62q-22-16.94-41.35-24.84A156.88 156.88 0 0 0 140.56 365q3.67 62.66 38.67 103.87L132.94 512l-45.16-43.18a156.59 156.59 0 0 0 25.54-44.6Q122.5 399.67 125 365q-42.9 3.1-83.27 35.28L0 357.61l41.77-43.18Q81 348.57 125 350.27q-4.52-57.3-37.26-96 32.75-35.85 37.26-92.86-44.6 2.25-83.27 35.84L0 154.39l41.77-43.47a138.88 138.88 0 0 0 39.66 25.41q22.44 9.58 43.61 10.72-2.27-32.46-11.15-57.29a180.1 180.1 0 0 0-26.11-47.7L132.94 0l44.88 42.06q-34.15 37.25-37.26 105 45.16-3.11 83.83-36.13L265 154.39z"/></svg>
