<svg xmlns="http://www.w3.org/2000/svg" viewBox="0 0 512 303.15"><defs><style>.cls-1{fill:#010101;fill-rule:evenodd}</style></defs><title>focus</title><path class="cls-1" d="M114.2 238.34v8.15l.2 3.67.2 3.87.31 4 .41 3.57.2 2.75.2 1.84v2.54l-.2 1.53-.2 1.53-.31 1.53-.41 1.53-.61 1.42-.61 1.43-.71 1.43-.71 1.42L111 282l-1 1.32-1.12 1.33-1.12 1.32-1.33 1.33-1.32 1.32-1.53 1.23-1.51 1.15-1.52 1.12-1.63 1.12-1.63.92-1.74.91-1.73.82-1.73.71-1.83.72-1.94.61-1.83.51-2 .4-1.94.31-2 .31-2.14.2-2 .1H71l-3-.2-3-.31-3-.39-2.85-.5-2.75-.72-2.65-.81-2.65-.92-2.55-1-2.44-1.12-2.45-1.32-2.34-1.33-2.24-1.53L37 288l-2.14-1.83-2-1.84-2-2-1.83-2L27.2 278l-1.73-2.35-1.63-2.34-1.43-2.55-1.41-2.67-1.33-2.75-1.22-2.75-1-3-1-3.05-1-3.16-.81-3.16-.72-3.36-.61-3.47-.61-3.56L0 235.48l1.22-3.77 1.43-3.77 1.53-3.66 1.73-3.47 1.93-3.46 2-3.26 1.16-1.63 1.22-1.63 1.23-1.63 1.22-1.53.61-5.4.82-5.2.5-2.55.51-2.55.51-2.54.61-2.45.72-2.44.71-2.35.71-2.34.82-2.34.81-2.35.82-2.24.92-2.24 1-2.14 1-2.24 1-2.14 1.12-2 1.12-2 1.23-2 1.22-2 1.22-1.93 1.35-2.1 1.43-1.93 1.33-1.84 1.52-1.83 1.43-1.73 1.55-1.8 1.63-1.73 1.63-1.63 1.63-1.64 1.73-1.63 1.83-1.63 1.73-1.53 1.84-1.53 1.93-1.43 1.94-1.52 1.93-1.33 2-1.42 2-1.33 2.14-1.32 2.14-1.23 2.14-1.22 4.48-2.34 4.69-2.25 4.78-2 5-1.94 5.19-1.83 5.4-1.63 5.5-1.43 5.71-1.32 5.8-1.23 6-1.12-1-1.83-1.22-1.84-1.32-1.73-1.53-1.63-1.84-1.53-1.83-1.42-2.14-1.33-2.27-1.38-2.45-1.1-2.64-1.13-2.86-1-3-.92-3.26-.82-3.36-.71-3.57-.61-3.67-.61L82 84l-1.84-.3-1.63-.31-1.32-.2-3.21-.55-3.2-.64-3.06-.61-2.85-.72L62 80l-2.65-.71-2.55-.82-2.44-.92-2.34-.81-2.25-1-2-.92-2-1-1.83-1.12-1.74-1.12-1.63-1.12L39 69.19l-1.43-1.33-1.32-1.32L35 65.11l-1.22-1.42-1-1.53-.91-1.63L31 58.9l-.71-1.74-.72-1.73-.61-1.83-.51-1.94-.45-1.93-.3-2-.21-2-.1-2.24-.1-2.14v-1.81l.1-1.74.21-1.73.2-1.63.31-1.63.3-1.53.41-1.63.51-1.53.51-1.42.61-1.53.71-1.43.72-1.42.81-1.43.82-1.33.91-1.32.92-1.32 1.12-1.33 1-1.22 1.22-1.23L39.93 12l1.23-1.12 1.32-1.12 1.43-1 1.42-1 1.53-1 1.53-.92L50 5l1.63-.91 1.73-.82 1.83-.71 1.84-.82 1.83-.61L81.6 0l-1.22 1.32-1.23 1.33L78 4l-1 1.3-.9 1.32L75.28 8l-.81 1.42-.72 1.33-.61 1.43-.61 1.32-.41 1.43-.4 1.32-.31 1.33-.2 1.42-.1 1.33L71 21.6l.11 1.12.1 1.12.1 1.12.2 1 .31 1.12.3 1.13.41 1.12.47 1.14.51 1.12.61 1.12.61 1.12.76 1.17 1.63 2.24L79 39.43l2.14 2.35L83.43 44 86 46.36l2.85 2.25L91.89 51l3.36 2.34 3.56 2.24 3.87 2.35 1.53 1 1.43.81 1.22.72 1 .5 3.36 2.25 3.26 2.24 3.06 2.34 2.87 2.21 2.65 2.35 2.44 2.34 2.35 2.45 2 2.34 1.97 2.52 1.83 2.65 1.74 2.75 1.61 2.78 1.42 2.95 1.43 3.06 1.22 3.26 1.22 3.26 6.93.82 6.62 1 3.16.61 3.16.51 3 .71 3.06.61 3 .72 2.86.81 2.75.82 2.64.81 2.65.92 2.55.81 2.55 1 2.34.92 2.34 1.12 2.35 1 2.24 1.22 2.24 1.12 2.24 1.23 2.14 1.32 2 1.33 2 1.42 1.94 1.43 2 1.42L213 128l1.83 1.63 1.84 1.63 1.73 1.63 1.73 1.74 1.73 1.83 1.94-1-1.63-3.06-1.63-3-1.43-3-1.42-3-1.23-2.85-1.12-2.86-1.12-2.85-.91-2.75-.82-2.75-.81-2.65-.62-2.65-.5-2.65-.41-2.55-.15-2.34-.2-2.45v-5.7l.31-3.16.4-3.16L211 79l.72-3 .81-3 1-2.85 1.22-2.86 1.33-2.64L217.5 62l1.73-2.55L221 57l1.93-2.44 2.07-2.39 2.24-2.34 2.45-2.24 2.54-2 2.65-2 2.75-1.83 2.75-1.74 2.86-1.52 2.98-1.5 3.06-1.33 3.15-1.12 3.16-1 3.26-.91 3.36-.72 3.47-.61 3.56-.51 3.57-.3 3.67-.21 3.76-.1h2.45l2.44.1 2.35.11 2.34.2 2.45.2 2.34.31 2.24.41 2.34.4 2.35.41 2.24.51 2.24.61 2.24.61 2.24.62 2.14.71 2.24.81 2.12.8 2.14.92 2.14.91 2.14 1 2 1 2 1.12 2.14 1.12 2 1.23 1.93 1.22 2 1.32 1.94 1.33 2 1.42 1.94 1.43 1.94 1.53 1.93 1.63 1.84 1.63 1.93 1.63 3.57 3.47 3.46 3.56 1.63 1.84 1.53 1.73 1.73 1.96 1.52 1.84 1.43 1.93 1.43 1.94 1.32 1.94 1.37 1.93 1.23 2 1.12 2 1.22 2 1 2 1 2.14 1 2 .91 2.14.92 2.14.82 2.24.81 2.25.71 2.24.72 2.24.61 2.24.61 2.34.51 2.35.51 2.34.4 2.34.41 2.45.31 2.34.3 2.45.21 2 .2 2.24.2 2.44.31 2.65.2 2.86.31 3 .31 3.16.3 3.47 1.22 11.92 1.23 10.7.61 4.89.71 4.59.61 4.28.71 4.07.75 3.91.71 3.36.71 3.06.72 2.75.81 2.45.71 2.14.82 1.83.81 1.53 1.43 2.44 1.63 2.35 1.73 2.14 1.94 2 2 1.93 2.13 1.73 2.35 1.63L412 223l2.55 1.33 2.55 1.22 2.64 1 2.65.81 2.75.62 2.75.4 2.86.31 2.85.1h2l1.93-.2 1.94-.21 1.83-.3 1.83-.31 1.84-.51 1.73-.51 1.73-.61 1.73-.81 1.63-.72 1.53-.91 1.63-1 1.43-1 1.53-1.12 1.42-1.23 1.43-1.32 1.32-1.33 1.23-1.42 1.12-1.53 1-1.43 1-1.53.92-1.63.82-1.63.71-1.63.61-1.73.51-1.73.51-1.73.41-1.84.3-1.83.2-1.94.11-1.93v-3.88l-.21-2.14-.4-2.24-.51-2.34-.72-2.65-.91-3.06-1.12-3.46-1.43-3.77 1-1.63 1.12-1.53 1.22-1.43 1.22-1.32 1.33-1.22 1.32-1 1.43-1 1.53-.92 1.52-.81 1.53-.72 1.73-.61 1.74-.51 1.73-.41 1.83-.3 1.94-.1 1.93-.11 2.35.11 2.14.3 1.12.21 1 .2 1 .3 1 .41.92.41.92.41.91.51.92.51.81.51.82.71.81.61.82.71 1.32 1.53 1.33 1.63.51.82.51.92.4.81.41.92.41.91.31 1 .2.92.2 1 .31 2 .1 2.14v1.32l-.1 1.43-.21 1.32-.3 1.43-.31 1.43-.4 1.42-.41 1.43-.61 1.43-.61 1.42-.62 1.53-.81 1.43-.82 1.53-.81 1.52-1 1.53-1 1.53-1.12 1.53-2.44 3.06-2.59 3.19-3.06 3.26-3.36 3.36-3.77 3.38-4 3.47-4.28 3.56-4.58 3.67-6.22 4.69-6.21 4.48-6.12 4.39-6.11 4.17-6.03 4.1-6.11 4-6 3.77-6 3.67-6 3.47-6 3.36-6 3.26-5.91 3.06-5.98 2.82-5.91 2.75-5.91 2.65-5.8 2.55-5.81 2.34-5.81 2.14-5.7 2-5.81 1.93-5.6 1.74-5.71 1.53-5.6 1.42-5.6 1.33-5.6 1.12-5.51 1-5.5.81-5.4.61-5.39.61-5.4.31-5.4.2-5.3.11h-3.36l-3.26-.11-3.36-.1-3.16-.2-3.26-.21-3.16-.3-3.06-.31-3.15-.4-3.06-.41-2.95-.51-3.06-.61-2.85-.61-3-.62-2.85-.71-2.85-.71-2.85-.82-2.75-.91-2.65-.82-2.75-1-2.65-1-2.65-1-2.55-1.12-2.54-1.22-2.55-1.22-2.45-1.23-2.46-1.32-2.44-1.43-2.35-1.42-2.34-1.43-2.24-1.53-2.24-1.63-2.24-1.63-2.25-1.63-2-1.73-2-1.73-1.94-1.74-1.96-1.83-1.83-1.73-1.74-1.84-1.63-1.83-1.63-1.94-1.63-1.83-1.42-1.94-1.43-1.93-1.32-2-1.37-1.98-1.12-2-1.12-2-1.12-2-1-2.14-.91-2.14-.82-2.14-.81-2.14-.72-2.24-.71-2.14-.51-2.24-.51-2.35-.51-2.24-.41-2.34-.3-2.35-.21-2.34-.2-2.34-.1-2.45V208l.2-2.65.21-2.65.3-2.54.51-2.55.51-2.45.61-2.34.72-2.34.81-2.24.82-2.14 1-2.14 1.12-2 1.13-2 1.32-1.94 1.43-1.83 1.42-1.73 1.53-1.73 1.63-1.64 1.73-1.52 1.84-1.53 1.83-1.33 1.93-1.32 2-1.33 2.14-1.12 2.24-1 2.24-1 2.45-.92 2.44-.82 2.55-.81 2.65-.72 2.65-.51 2.75-.5.61-1.64-1.84-2.13-1.93-2-1.83-2-1.94-1.94-1.94-1.93-1.87-2.02-1.89-1.77-2-1.73-2-1.5-2-1.63-2-1.43-2-1.53-2.14-1.32-2-1.32-2.14-1.23-2.14-1.12-2.24-1.12-2.34-1.15-2.24-.92-2.24-.91-2.24-.92-2.24-.82-2.24-.71-2.35-.61-2.34-.61-2.31-.65-2.35-.41-2.44-.41-2.34-.41-2.45-.2-2.44-.31-2.45-.1-.2 4.18-.41 4.18-.51 4.07-.71 4-.82 3.87-.91 3.87-1.12 3.67-1.23 3.67-1.42 3.58-1.53 3.47-1.63 3.36-1.84 3.36-1.94 3.16-2.14 3.16-2.24 3.06-2.34 3-2.55 3-2.79 2.76-3.06 3-3.16 3-3.56 2.86-3.67 3-4 2.85-4.18 3-4.37 2.77-4.58 2.86-4.89 3-5.1 2.85-5.29 3-5.5 2.85-5.81 3-6 2.85L54 224l.31 1.53.3 1.53.41 1.53.41 1.42.41 1.43.51 1.32.61 1.33.61 1.32.61 1.23.71 1.22.71 1.14.81 1.12.92 1.12.81 1 1 .92 1 1 1 .81 1 .82 1.12.81 1.12.72 1.22.61 1.22.51 1.23.51 1.22.51 1.32.4 1.33.31 1.32.3 1.43.21 1.42.1 1.43.1h3.16l1.73-.2 1.73-.21 1.73-.3 1.73-.41 1.74-.51 1.73-.61 1.83-.71 1.84-.82 1.93-.92 2-1 2-1.12 2.24-1.23 2.24-1.32 2.44-1.53 2.45-1.63zm-65.81-42.8l5.09-1.54 4.79-1.63 4.73-1.62 4.54-1.75 4.28-1.73 4.18-1.72 4-1.83 3.77-1.94L87.4 180l3.37-2 3.23-2 3.15-2 2.86-2 2.75-2.14 2.54-2.24 2.35-2.14 2.14-2.35 2.13-2.34 1.84-2.34 1.83-2.55 1.63-2.55 1.43-2.65 1.42-2.75 1.12-2.85 1.13-2.85.91-3 .72-3.06.61-3.15.51-3.16.4-3.26.21-3.37v-4.48l-4.59.92-4.38 1-4.28 1.12-4.14 1.19-4 1.32-3.87 1.33-3.77 1.53-3.56 1.53-3.36 1.73-3.36 1.73-3.04 1.83-3.06 1.94-2.85 2-2.75 2-2.55 2.24-2.44 2.24-2.24 2.45-2.14 2.44-2 2.65-1.93 2.65-1.74 2.85-1.63 3-1.52 2.95L55 166.6l-1.22 3.26-1.12 3.36-1 3.47-.92 3.57-.81 3.66-.62 3.77-.5 3.88-.41 4z"/></svg>
