<svg xmlns="http://www.w3.org/2000/svg" viewBox="0 0 512 292.84"><defs><style>.cls-1{fill:#000}</style></defs><path class="cls-1" d="M324.36 162.18c17.42-47.29 43.55-117.38 46.46-124.85C378.7 16.59 387 0 410.22 0h99.13c3.74 0 3.32 5.81 0 5.81-24.88 0-34 2.49-34 45.21V229c0 17.84-3.32 52.68-39 52.68-3.73 0-4.56 5 0 5h61.8c3.74 0 3.74 6.23 0 6.23H342.2c-5.4 0-5-6.64 0-6.64 46 0 44.38-35.67 44.38-51V17.84c-4.15 7.46-7.88 17.42-12 29l-91.7 244.34h-4.15s-60.55-146-95.81-230.62c-6.22-14.1-12.44-29.45-22-40.24v217.35c0 27 6.22 48.12 37.33 48.94h23.22c3.74 0 3.74 6.23 0 6.23H95.4c-3.73 0-3.73-6.23 0-6.23h23.23c27.37-.82 35.25-19.91 36.08-44.79V15.76c-7.88-7-26.54-9.54-42.3-9.95C76.73 7.05 42.72 26.55 42.72 56c0 16.17 10.79 24.47 20.33 24.47 12.44 0 24-11.62 23.22-20.33 28.62-2.07 46.05 27 46.05 54.34 0 36.92-30.28 63.88-67.61 63.88S0 152.64 0 107C0 53.09 49.77 0 122.36 0H212c35.68 0 46.46 12 65.95 56 3.74 9.54 23.65 58.06 41.07 103.69 0 .42 0 .42.41.83 1.2 3.32 3.69 3.73 4.93 1.66z"/></svg>
